<svg width="26" height="26" viewBox="0 0 26 26" fill="none" xmlns="http://www.w3.org/2000/svg">
<path fill-rule="evenodd" clip-rule="evenodd" d="M18.4629 0.164429C22.7886 0.164429 25.695 3.20085 25.695 7.7197V18.2506C25.695 22.7694 22.7886 25.8058 18.4629 25.8058H7.28566C2.96001 25.8058 0.0535889 22.7694 0.0535889 18.2506V7.7197C0.0535889 3.20085 2.96001 0.164429 7.28566 0.164429H18.4629ZM18.4629 1.95336H7.28566C3.97971 1.95336 1.84252 4.21577 1.84252 7.7197V18.2506C1.84252 21.7545 3.97971 24.0169 7.28566 24.0169H18.4629C21.7701 24.0169 23.9061 21.7545 23.9061 18.2506V7.7197C23.9061 4.21577 21.7701 1.95336 18.4629 1.95336ZM12.8743 7.71052C13.368 7.71052 13.7688 8.11124 13.7688 8.60498V12.0787L17.247 12.079C17.7408 12.079 18.1415 12.4797 18.1415 12.9734C18.1415 13.4672 17.7408 13.8679 17.247 13.8679L13.7688 13.8677V17.3433C13.7688 17.8371 13.368 18.2378 12.8743 18.2378C12.3805 18.2378 11.9798 17.8371 11.9798 17.3433V13.8677L8.50154 13.8679C8.0066 13.8679 7.60707 13.4672 7.60707 12.9734C7.60707 12.4797 8.0066 12.079 8.50154 12.079L11.9798 12.0787V8.60498C11.9798 8.11124 12.3805 7.71052 12.8743 7.71052Z" fill="white"/>
</svg>
