<svg width="45" height="46" viewBox="0 0 45 46" fill="none" xmlns="http://www.w3.org/2000/svg">
<path fill-rule="evenodd" clip-rule="evenodd" d="M30.6262 3.89221C36.9806 3.89221 41.25 8.35096 41.25 14.9847V30.2997C41.25 36.9335 36.9806 41.3922 30.6244 41.3922H14.3719C8.0175 41.3922 3.75 36.9335 3.75 30.2997V14.9847C3.75 8.35096 8.0175 3.89221 14.3719 3.89221H30.6262ZM30.6262 6.70471H14.3719C9.62813 6.70471 6.5625 9.95409 6.5625 14.9847V30.2997C6.5625 35.3303 9.62813 38.5797 14.3719 38.5797H30.6244C35.37 38.5797 38.4375 35.3303 38.4375 30.2997V14.9847C38.4375 9.95409 35.37 6.70471 30.6262 6.70471ZM30.1678 17.1991C30.7172 17.7485 30.7172 18.6372 30.1678 19.1866L21.2691 28.0853C20.9953 28.361 20.6353 28.4978 20.2753 28.4978C19.9172 28.4978 19.5553 28.361 19.2816 28.0853L14.8303 23.636C14.2809 23.0866 14.2809 22.1978 14.8303 21.6485C15.3797 21.0991 16.2684 21.0991 16.8178 21.6485L20.2753 25.1022L28.1803 17.1991C28.7297 16.6497 29.6184 16.6497 30.1678 17.1991Z" fill="#F7763D"/>
</svg>
